<svg id="Icons" height="20" viewBox="0 0 64 64" width="20" xmlns="http://www.w3.org/2000/svg"><g><g><path d="m52 24c0 9.728-15.621 30.815-19.266 35.587-.395.517-1.163.523-1.57.015-3.998-4.979-19.164-26.178-19.164-35.602 0-11.05 8.95-20 20-20s20 8.95 20 20z" fill="#c80a50"/></g><g><circle cx="32" cy="24" fill="#f0f0f0" r="13"/></g><g><path d="m35.755 20.356-.652-1.712c-.148-.388-.52-.644-.935-.644h-4.336c-.415 0-.787.256-.934.644l-.652 1.712c-.148.388-.52.644-.935.644h-2.311c-.552 0-1 .448-1 1v9c0 .552.448 1 1 1h14c.552 0 1-.448 1-1v-9c0-.552-.448-1-1-1h-2.311c-.415 0-.787-.256-.934-.644z" fill="#d2d2d2"/></g><g><path d="m45.034 24.034c0 .158 0 .307-.009.466-.242-6.983-5.986-12.569-13.025-12.569s-12.783 5.586-13.025 12.569c-.009-.158-.009-.307-.009-.466 0-7.196 5.837-13.034 13.034-13.034s13.034 5.838 13.034 13.034z" fill="#d2d2d2"/></g><g><path d="m35.755 19.356-.652-1.712c-.148-.388-.52-.644-.935-.644h-4.336c-.415 0-.787.256-.934.644l-.652 1.712c-.148.388-.52.644-.935.644h-2.311c-.552 0-1 .448-1 1v9c0 .552.448 1 1 1h14c.552 0 1-.448 1-1v-9c0-.552-.448-1-1-1h-2.311c-.415 0-.787-.256-.934-.644z" fill="#0a5078"/></g><g><circle cx="32" cy="26" fill="#00325a" r="3"/></g><g><circle cx="32" cy="25" fill="#f0f0f0" r="3"/></g></g></svg>