<svg height="20" width="20" enable-background="new 0 0 512 512" viewBox="0 0 512 512" xmlns="http://www.w3.org/2000/svg"><g id="&#x5716;&#x5C64;_1"/><g id="_x31_5_Cruise"><g><g><path d="m404.576 202.32h-366.483l-29.58 75.057h430.253z" fill="#f9f9f1"/><g><path d="m399.576 155.688h-144.056c-2.054 0-3.899 1.256-4.652 3.167l-17.13 43.465h170.838v-41.632c0-2.762-2.238-5-5-5z" fill="#ebebd3"/><path d="m243.524 177.49h-200.431c-2.761 0-5 2.239-5 5v19.83h195.645z" fill="#ebebd3"/><path d="m136.488 128.769h-45.84c-2.761 0-5 2.239-5 5v43.721h73.406l-17.913-45.551c-.752-1.912-2.598-3.17-4.653-3.17z" fill="#f95738"/><path d="m293.557 128.769h26.653l10.586 26.919h-42.239v-21.919c0-2.761 2.238-5 5-5z" fill="#0f6dd2"/></g><g><path d="m498.482 277.377h-489.969v47.546c0 4.002 1.201 7.912 3.447 11.225l27.915 41.167 16.66-9.304c12.121-6.769 26.884-6.769 39.005 0l20.899 11.671c6.007 3.355 12.664 5.042 19.326 5.071h.353c6.662-.029 13.319-1.716 19.326-5.071l20.899-11.671c12.121-6.769 26.884-6.769 39.005 0l20.899 11.671c6.007 3.355 12.664 5.042 19.326 5.071h.353c6.662-.029 13.319-1.716 19.326-5.071l20.899-11.671c12.121-6.769 26.884-6.769 39.005 0l20.899 11.671c6.007 3.355 12.664 5.042 19.326 5.071h.353c6.662-.029 13.319-1.716 19.326-5.071l20.899-11.671c10.012-5.591 21.824-6.55 32.464-2.904l54.196-79.924c2.253-3.32-.126-7.806-4.137-7.806z" fill="#0f6dd2"/><g fill="#4096f2"><path d="m177.042 312.904h-49.691c-2.761 0-5-2.239-5-5v-30.527h54.691z"/><path d="m177.042 277.377h54.691v35.527h-54.691z"/><path d="m281.423 312.904h-49.691v-35.527h54.691v30.527c0 2.761-2.238 5-5 5z"/></g></g></g><path d="m509.085 276.757c-2.086-3.936-6.148-6.38-10.603-6.38h-55.214l-31.693-69.576v-40.113c0-6.617-5.383-12-12-12h-64.011l-21.472-54.601c-1.414-3.598-5.479-5.362-9.076-3.953-3.598 1.415-5.368 5.479-3.953 9.076l8.871 22.559h-16.378c-6.617 0-12 5.383-12 12v14.919h-26.036c-4.964 0-9.346 2.983-11.165 7.601l-5.597 14.201h-74.936l-16.167-41.11c-1.817-4.623-6.201-7.61-11.168-7.61h-45.839c-6.617 0-12 5.383-12 12v36.721h-35.554c-6.617 0-12 5.383-12 12v18.5l-29.093 73.82c-.015.038-.023.077-.037.115-.073.196-.138.395-.194.598-.02.073-.039.146-.056.219-.045.188-.081.378-.11.571-.012.076-.026.152-.035.229-.024.205-.037.413-.043.623-.002.058-.009.116-.009.174 0 .013-.002.025-.002.038v47.546c0 5.425 1.608 10.664 4.652 15.153l23.631 34.849-17.076 9.536c-3.375 1.885-4.583 6.148-2.698 9.524 1.281 2.295 3.663 3.588 6.118 3.588 1.154 0 2.326-.286 3.406-.89l40.401-22.562c9.924-5.541 22.255-5.541 32.179 0l20.899 11.671c14.135 7.895 31.696 7.895 45.831 0l20.899-11.671c9.925-5.541 22.256-5.541 32.179 0l20.899 11.671c14.351 8.015 31.482 8.015 45.831 0l20.899-11.671c9.924-5.541 22.255-5.541 32.179 0l20.899 11.671c14.135 7.894 31.694 7.894 45.831 0l20.898-11.671c9.925-5.541 22.256-5.541 32.179 0l40.402 22.562c3.377 1.887 7.641.677 9.524-2.698 1.885-3.376.677-7.64-2.698-9.524l-39.91-22.287 49.543-73.063c2.501-3.686 2.759-8.42.673-12.355zm-213.528-140.988h19.884l5.081 12.919h-24.965zm-38.675 26.919h140.694v9.316h-116.771c-3.866 0-7 3.134-7 7s3.134 7 7 7h116.771v9.315h-153.555zm-164.234-26.919h42.477l13.654 34.721h-56.131zm-47.554 48.721h188.147l-.997 2.528-3.272 8.302h-183.878zm-2.235 24.83h357.213l27.812 61.058h-409.088zm236.564 75.057v21.526h-40.69v-21.526zm-54.691 0v21.526h-40.69v-21.526zm-54.69 0v21.526h-40.691v-21.526zm275.384 72.679c-11.051-2.368-22.828-.768-32.879 4.844l-20.898 11.671c-9.924 5.543-22.255 5.543-32.179 0l-20.9-11.671c-14.135-7.895-31.696-7.895-45.831 0l-20.899 11.671c-10.075 5.625-22.105 5.625-32.179 0l-20.899-11.671c-14.136-7.894-31.695-7.894-45.831 0l-20.899 11.671c-9.924 5.541-22.255 5.541-32.179 0l-20.9-11.671c-14.136-7.894-31.695-7.894-45.831 0l-11.055 6.174-24.313-35.854c-1.466-2.161-2.24-4.684-2.24-7.296v-40.546h99.837v23.526c0 6.617 5.383 12 12 12h49.691 54.69 49.69c6.617 0 12-5.383 12-12v-23.526h201.286zm-173.129-123.049h-12c-3.866 0-7-3.134-7-7s3.134-7 7-7h12c3.866 0 7 3.134 7 7s-3.134 7-7 7zm-48 0h-12c-3.866 0-7-3.134-7-7s3.134-7 7-7h12c3.866 0 7 3.134 7 7s-3.134 7-7 7zm-48 0h-12c-3.866 0-7-3.134-7-7s3.134-7 7-7h12c3.866 0 7 3.134 7 7s-3.134 7-7 7zm-48 0h-12c-3.866 0-7-3.134-7-7s3.134-7 7-7h12c3.866 0 7 3.134 7 7s-3.134 7-7 7zm-48 0h-12c-3.866 0-7-3.134-7-7s3.134-7 7-7h12c3.866 0 7 3.134 7 7s-3.134 7-7 7zm288 25.185h-12c-3.866 0-7-3.134-7-7s3.134-7 7-7h12c3.866 0 7 3.134 7 7s-3.134 7-7 7zm-48 0h-12c-3.866 0-7-3.134-7-7s3.134-7 7-7h12c3.866 0 7 3.134 7 7s-3.134 7-7 7zm-48 0h-12c-3.866 0-7-3.134-7-7s3.134-7 7-7h12c3.866 0 7 3.134 7 7s-3.134 7-7 7zm-48 0h-12c-3.866 0-7-3.134-7-7s3.134-7 7-7h12c3.866 0 7 3.134 7 7s-3.134 7-7 7zm-48 0h-12c-3.866 0-7-3.134-7-7s3.134-7 7-7h12c3.866 0 7 3.134 7 7s-3.134 7-7 7zm-48 0h-12c-3.866 0-7-3.134-7-7s3.134-7 7-7h12c3.866 0 7 3.134 7 7s-3.134 7-7 7zm-48 0h-12c-3.866 0-7-3.134-7-7s3.134-7 7-7h12c3.866 0 7 3.134 7 7s-3.134 7-7 7zm342.608 50.014h-12c-3.866 0-7-3.134-7-7s3.134-7 7-7h12c3.866 0 7 3.134 7 7s-3.134 7-7 7zm-48 0h-12c-3.866 0-7-3.134-7-7s3.134-7 7-7h12c3.866 0 7 3.134 7 7s-3.134 7-7 7zm-48 0h-12c-3.866 0-7-3.134-7-7s3.134-7 7-7h12c3.866 0 7 3.134 7 7s-3.134 7-7 7zm48.654 113.145c-7.925.001-15.847-1.973-22.915-5.92l-20.899-11.671c-9.924-5.541-22.255-5.541-32.179 0l-15.656 8.743c-3.377 1.888-7.641.676-9.524-2.698-1.885-3.375-.677-7.64 2.698-9.524l15.656-8.743c14.135-7.895 31.696-7.895 45.831 0l20.899 11.671c9.924 5.543 22.255 5.543 32.179 0l20.898-11.671c14.135-7.895 31.696-7.895 45.831 0l15.656 8.743c3.375 1.885 4.583 6.149 2.698 9.524-1.883 3.376-6.147 4.585-9.524 2.698l-15.656-8.743c-9.923-5.542-22.254-5.542-32.179 0l-20.898 11.671c-7.068 3.946-14.994 5.92-22.916 5.92z"/></g></g></svg>