<svg height="20" width="20" id="Travel_-_Filled" enable-background="new 0 0 64 64" viewBox="0 0 64 64" xmlns="http://www.w3.org/2000/svg"><g><g><path d="m44.46 9h-33.34v39.72c0 2.13 1.73 3.85 3.85 3.85h29.49c1.79 0 3.3-1.22 3.72-2.88.09-.31.13-.64.13-.97v-35.87c0-2.12-1.72-3.85-3.85-3.85zm0 35.93c0 2.21-1.79 4-4 4h-21.49c-2.21 0-4-1.79-4-4v-27.87c0-2.21 1.79-4 4-4h21.49c2.21 0 4 1.79 4 4z" fill="#9493b2"/><path d="m52.88 8.91v36.93c0 2.12-1.72 3.85-3.85 3.85h-.85c.09-.31.13-.64.13-.97v-35.87c0-2.12-1.72-3.85-3.85-3.85h-33.34l5.89-3.94h32.02c2.13 0 3.85 1.72 3.85 3.85z" fill="#fcfcfc"/><path d="m49.03 5.06h-32.01l-2.9 1.94h33.34c2.13 0 3.536 1.67 3.536 3.79v35.87c0 .33-.04.66-.13.97l1.164.06c.129 0 .251-.026.377-.038.292-.543.473-1.154.473-1.812v-36.93c0-2.13-1.72-3.85-3.85-3.85z" fill="#d3e0ca"/><path d="m44.46 17.06v27.87c0 2.21-1.79 4-4 4h-21.49c-2.21 0-4-1.79-4-4v-27.87c0-2.21 1.79-4 4-4h21.49c2.21 0 4 1.79 4 4z" fill="#fcfcfc"/><path d="m36.03 35.95c0 .95-.77 1.73-1.73 1.73-.95 0-1.72-.78-1.72-1.73s.77-1.73 1.72-1.73c.96 0 1.73.78 1.73 1.73z" fill="#ffc361"/><path d="m38.57 34.25c-.67-1.7-2.33-2.89-4.27-2.89-2.53 0-4.59 2.05-4.59 4.59 0 1.02.75 2.29 1.64 3.45 1.31 1.71 2.95 3.16 2.95 3.16s4.6-4.07 4.6-6.61c0-.6-.12-1.18-.33-1.7zm-4.27 3.43c-.95 0-1.72-.78-1.72-1.73s.77-1.73 1.72-1.73c.96 0 1.73.78 1.73 1.73s-.77 1.73-1.73 1.73z" fill="#f65b7d"/><path d="m39.74 30.21c-.1 1.46-.51 2.83-1.17 4.04-.67-1.7-2.33-2.89-4.27-2.89-2.53 0-4.59 2.05-4.59 4.59 0 1.02.75 2.29 1.64 3.45-.53.09-1.08.14-1.64.14-3.52 0-6.61-1.8-8.4-4.53l.33.02c2.64.3 5.19-2.72 3.67-5.45-1.46-2.61 1.17-4.02 2.91-5.02 1.21-.7.2-2.67-.53-3.81l-.51-.99c.8-.22 1.65-.33 2.53-.33 2.12 0 4.09.65 5.71 1.77h-.12c-.24 0-.48.03-.72.08-1.91.41-2.66 2.49-2.21 4.25.75 2.91 3.72 3.54 6.23 4.3z" fill="#9ac6fd"/><path d="m28.22 24.56c-1.74 1-4.37 2.41-2.91 5.02 1.52 2.73-1.03 5.75-3.67 5.45l-.33-.02c-1.05-1.59-1.65-3.49-1.65-5.53 0-4.68 3.19-8.61 7.52-9.72l.51.99c.73 1.14 1.74 3.11.53 3.81z" fill="#96c17c"/><path d="m39.77 29.48c0 .25-.01.49-.03.73l-1.14-.38c-2.51-.76-5.48-1.39-6.23-4.3-.45-1.76.3-3.84 2.21-4.25.24-.05.48-.08.72-.08h.13c2.62 1.83 4.34 4.84 4.34 8.28z" fill="#96c17c"/><path d="m24.243 52.574v6.366l-3.19-3.183-3.19 3.183v-6.366z" fill="#f65b7d"/><g fill="#424356"><path d="m49.027 4.061h-32.02c-.198 0-.392.059-.557.169l-5.884 3.942c-.011.007-.011.024-.02.033-.251.182-.425.463-.425.797v39.721c0 2.675 2.176 4.851 4.851 4.851h1.891v5.366c0 .404.243.769.617.924.372.153.803.069 1.089-.216l2.484-2.479 2.484 2.479c.191.19.446.292.706.292.129 0 .26-.025.383-.076.374-.155.617-.52.617-.924v-5.366h19.217c1.974 0 3.67-1.189 4.426-2.885h.141c2.675 0 4.852-2.177 4.852-4.852v-36.925c0-2.675-2.177-4.851-4.852-4.851zm-25.784 52.468-1.484-1.48c-.391-.389-1.021-.389-1.412 0l-1.484 1.48v-2.956h4.381v2.956zm21.217-4.956h-29.488c-1.572 0-2.851-1.278-2.851-2.851v-38.72h32.339c1.572 0 2.852 1.279 2.852 2.852v35.869c0 1.572-1.28 2.85-2.852 2.85zm7.419-5.736c0 1.475-1.13 2.678-2.567 2.823v-35.806c0-2.675-2.177-4.852-4.852-4.852h-30.046l2.897-1.941h31.717c1.572 0 2.852 1.279 2.852 2.852v36.924z"/><path d="m40.46 12.06h-21.487c-2.757 0-5 2.243-5 5v27.866c0 2.757 2.243 5 5 5h21.487c2.757 0 5-2.243 5-5v-27.866c0-2.757-2.243-5-5-5zm3 32.866c0 1.654-1.346 3-3 3h-21.487c-1.654 0-3-1.346-3-3v-27.866c0-1.654 1.346-3 3-3h21.487c1.654 0 3 1.346 3 3z"/><path d="m34.305 33.225c-1.504 0-2.727 1.223-2.727 2.727 0 1.503 1.223 2.726 2.727 2.726 1.503 0 2.726-1.223 2.726-2.726-.001-1.505-1.223-2.727-2.726-2.727zm0 3.452c-.4 0-.727-.325-.727-.726s.326-.727.727-.727.726.326.726.727-.326.726-.726.726z"/><path d="m36.136 20.501c-.01-.01-.022-.015-.032-.024-1.807-1.285-4.01-2.048-6.392-2.048-6.094 0-11.052 4.957-11.052 11.051 0 6.099 4.958 11.061 11.052 11.061.411 0 .813-.031 1.208-.076 1.189 1.459 2.464 2.613 2.721 2.841.189.168.426.252.663.252s.474-.084.663-.252c.505-.447 4.93-4.452 4.93-7.354 0-.575-.088-1.13-.249-1.652.725-1.49 1.124-3.141 1.124-4.82 0-3.7-1.835-6.972-4.636-8.979zm-2.515 2.595c.276-.448.672-.73 1.163-.838.111-.022.215-.025.321-.034 2.057 1.53 3.441 3.904 3.634 6.608-2.225-.669-4.899-1.616-5.396-3.551-.195-.754-.087-1.591.278-2.185zm-6.854-2.166c.668 1.23 1.054 2.484.955 2.764l-.15.086c-1.634.938-5.032 2.889-3.137 6.287.679 1.214.14 2.267-.124 2.663-.556.839-1.506 1.353-2.407 1.309-.785-1.341-1.243-2.897-1.243-4.56-.001-3.958 2.558-7.323 6.106-8.549zm7.538 20.262c-1.667-1.617-3.593-3.979-3.593-5.241 0-1.981 1.611-3.593 3.593-3.593s3.593 1.611 3.593 3.593c-.001 1.263-1.926 3.624-3.593 5.241zm0-10.834c-3.084 0-5.593 2.509-5.593 5.593 0 .809.35 1.703.856 2.582-2.455-.039-4.675-1.056-6.285-2.684 1.065-.321 2.037-1.023 2.693-2.011.972-1.463 1.048-3.237.204-4.746-.798-1.431.091-2.26 2.386-3.576l.156-.091c.45-.261.757-.685.887-1.224.274-1.134-.3-2.653-.827-3.725.306-.031.616-.048.93-.048 1.11 0 2.169.21 3.153.577-.366.281-.689.624-.946 1.042-.651 1.057-.843 2.453-.513 3.733.812 3.156 4.622 4.339 7.243 5.111-.065.416-.162.824-.284 1.225-1.02-1.079-2.461-1.758-4.06-1.758z"/></g></g></g></svg>