<svg id="Layer_1" enable-background="new 0 0 512 512" height="20" viewBox="0 0 512 512" width="20" xmlns="http://www.w3.org/2000/svg"><g><path d="m0 199.097v119.621l311.147 147.099 200.853-189.642v-77.078z" fill="#bbfffd"/><path d="m378.524 276.175c-22.542 0-40.816 18.274-40.816 40.816 0 37.252-30.199 67.451-67.451 67.451h-118.2c-18.149 0-32.862-14.713-32.862-32.862 0-18.149-14.713-32.862-32.862-32.862h-86.333v150.899c0 17.557 14.233 31.79 31.79 31.79h448.42c17.557 0 31.79-14.233 31.79-31.79v-193.442z" fill="#b2ea3f"/><path d="m256 439.746 55.147 26.071 200.853-189.643v-77.077h-256z" fill="#74fcff"/><path d="m337.708 316.99c0 37.252-30.199 67.451-67.451 67.451h-14.257v116.966h224.21c17.557 0 31.79-14.233 31.79-31.79v-193.443h-133.476c-22.542 0-40.816 18.274-40.816 40.816z" fill="#00eb58"/><path d="m68.669 143.321 119.426-13.734c1.34-1.218 2.478-2.645 3.364-4.232l21.164-47.669c-4.57 1.786-9.85 1.541-14.378-1.027l-81.475-46.209c-4.644-2.634-10.265-2.898-15.136-.711l-21.554 9.677c-4.888 2.195-10.531 1.92-15.183-.738l-26.289-15.022c-7.812-4.464-17.754-1.965-22.527 5.662l-13.528 21.62c-1.668 2.666-2.553 5.747-2.553 8.892v57.417l61.272 26.106c2.433-.562 4.96-.572 7.397-.032z" fill="#0c475b"/><path d="m233.54 139.075-164.871-35.986c-2.437-.541-4.965-.53-7.397.031l-61.272 14.126v81.851h93.801l138.402-58.923c.466-.343.911-.712 1.337-1.099z" fill="#062842"/><path d="m384.698 106.148c-.431-.183 12.822-32.946 12.378-33.092l-103.99 1.186c-4.311.96-8.959.226-12.866-2.347l-9.99-6.577c-2.737-1.802-5.941-2.762-9.218-2.762h-25.407c-5.145 0-10.005 2.363-13.183 6.409l-2.724 3.468c-1.906 2.426-4.366 4.196-7.074 5.254l-21.164 47.669c-.886 1.587-2.025 3.014-3.364 4.232-.426.387-.871.756-1.337 1.099l-92.957 68.41h204.518l87.151-92.62z" fill="#326b82"/><path d="m512 135.519-60.868-2.309c-2.039-.078-4.048-.527-5.925-1.325l-63.052-58.829-83.836 126.041h213.681z" fill="#001e2a"/><circle cx="390.427" cy="380.021" fill="#00bd9f" r="15.705"/><circle cx="428.414" cy="427.969" fill="#00bd9f" r="15.705"/><path d="m119.14 243.715h-119.14v31.872h119.14c8.801 0 15.936-7.135 15.936-15.936s-7.135-15.936-15.936-15.936z" fill="#74fcff"/><g><circle cx="174.531" cy="259.651" fill="#5fd2ff" r="15.705"/></g><path d="m397.076 73.056-103.99 1.186c-4.311.96-8.959.226-12.866-2.347l-9.99-6.577c-2.737-1.802-5.941-2.762-9.218-2.762h-5.012v136.541h42.319l87.151-92.62-.772-.328c-.431-.184 12.822-32.946 12.378-33.093z" fill="#0c475b"/><path d="m500.892 31.361-27.795-9.96c-.813-.292-1.648-.52-2.496-.682l-51.209-9.825c-4.285-.822-8.721.059-12.367 2.455l-28.109 18.48c-2.735 1.798-5.936 2.756-9.209 2.756h-26.993c-4.513 0-8.834 1.819-11.988 5.047l-29.299 29.98c-2.34 2.395-5.254 3.944-8.34 4.631l90.299 31.411c.445.147.883.312 1.314.495l.772.328 59.737 25.408c1.878.799 3.886 1.248 5.925 1.325l60.866 2.309v-88.378c0-7.078-4.445-13.393-11.108-15.78z" fill="#062842"/></g></svg>