<?xml version="1.0" encoding="iso-8859-1"?>
<!-- Generator: Adobe Illustrator 19.0.0, SVG Export Plug-In . SVG Version: 6.00 Build 0)  -->
<svg width="20" height="20" version="1.1" id="Capa_1" xmlns="http://www.w3.org/2000/svg" xmlns:xlink="http://www.w3.org/1999/xlink" x="0px" y="0px"
	 viewBox="0 0 512 512" style="enable-background:new 0 0 512 512;" xml:space="preserve">
<g>
	<path style="fill:#3D6687;" d="M167.645,74.149l-25.562-25.562l36.278-36.278c3.63-3.63,9.516-3.63,13.147,0l12.415,12.415
		c3.63,3.63,3.63,9.516,0,13.147L167.645,74.149z"/>
	<path style="fill:#3D6687;" d="M235.612,106.2L210.05,80.638l36.278-36.278c3.63-3.63,9.516-3.63,13.147,0l12.415,12.415
		c3.63,3.63,3.63,9.516,0,13.147L235.612,106.2z"/>
	<path style="fill:#3D6687;" d="M440.008,346.511l25.562,25.562l36.278-36.278c3.63-3.63,3.63-9.516,0-13.147l-12.415-12.415
		c-3.63-3.63-9.516-3.63-13.147,0L440.008,346.511z"/>
	<path style="fill:#3D6687;" d="M403.643,278.545l25.562,25.562l36.278-36.278c3.63-3.63,3.63-9.516,0-13.147l-12.415-12.415
		c-3.63-3.63-9.516-3.63-13.147,0L403.643,278.545z"/>
</g>
<g>
	<path style="fill:#CCDFED;" d="M437.941,452.943L275.676,235.555L58.288,73.289c-7.618-5.686-8.421-16.806-1.699-23.528
		l22.287-22.287c9.978-9.978,24.986-12.962,38.022-7.559l264.71,109.708l109.708,264.71c5.403,13.036,2.419,28.044-7.559,38.022
		l-22.287,22.287C454.748,461.364,443.628,460.561,437.941,452.943z"/>
	<path style="fill:#CCDFED;" d="M183.943,499.736l-74.623-99.214l-99.214-74.623c-3.251-2.446-3.586-7.203-0.709-10.079
		l11.441-11.441c7.708-7.708,19.385-9.835,29.316-5.339l110.588,50.06l50.061,110.588c4.495,9.931,2.369,21.608-5.339,29.316
		l-11.441,11.441C191.146,503.322,186.389,502.987,183.943,499.736z"/>
</g>
<g>
	<path style="fill:#BAD5E5;" d="M182.987,432.49c-9.297,9.297-24.669,8.215-32.572-2.292l-30.379-40.391l-0.095,0.095
		L14.582,310.635l0,0l-5.185,5.185c-2.877,2.877-2.542,7.634,0.709,10.08l99.214,74.623l74.623,99.214
		c2.445,3.251,7.203,3.586,10.079,0.709l11.441-11.441c7.708-7.708,9.835-19.385,5.339-29.316l-17.144-37.871l0,0L182.987,432.49z"
		/>
	<path style="fill:#BAD5E5;" d="M490.733,422.332c0.449-0.97,0.869-1.952,1.225-2.956c0.732-2.059,1.246-4.184,1.581-6.339
		c0.963-6.195,0.282-12.66-2.223-18.705l-15.947-38.479l-1.013-2.445c-0.945,7.537-4.341,14.729-9.946,20.333l-22.287,22.287
		c-6.722,6.722-17.842,5.919-23.528-1.699L289.649,221.582L58.274,48.076l-1.685,1.685c-4.417,4.417-5.564,10.726-3.685,16.152
		c0.981,2.832,2.771,5.427,5.384,7.377l141.24,105.426l76.148,56.839l56.839,76.148l105.426,141.24
		c1.95,2.612,4.545,4.403,7.377,5.384c5.425,1.879,11.735,0.732,16.152-3.685l22.287-22.287
		C486.714,429.397,489.041,425.991,490.733,422.332z"/>
</g>
<path style="fill:#61AFF6;" d="M109.305,427.16L109.305,427.16c-16.986,8.105-34.728-9.637-26.623-26.623l0,0
	c18.015-37.755,41.026-72.915,68.414-104.535L339.303,78.714c27.844-32.147,67.049-52.269,109.401-56.152l11.54-1.058
	c16.087-1.475,29.569,12.007,28.094,28.094l-1.058,11.54c-3.883,42.351-24.005,81.556-56.152,109.401L213.84,358.746
	C182.22,386.135,147.06,409.145,109.305,427.16z"/>
<path style="fill:#399AEA;" d="M487.28,61.138l1.058-11.54c1.475-16.087-12.007-29.569-28.094-28.094l-11.54,1.058
	c-0.15,0.014-0.3,0.033-0.451,0.047c-3.984,42.178-24.073,81.205-56.105,108.95L86.681,423.348
	c5.549,5.479,14.179,7.842,22.624,3.812l0,0c37.755-18.015,72.915-41.026,104.535-68.414l217.288-188.208
	C463.275,142.695,483.398,103.49,487.28,61.138z"/>
<path d="M396.689,62.056c-4.093-0.35-7.694,2.684-8.044,6.776c-0.35,4.091,2.684,7.694,6.776,8.044
	c22.303,1.909,35.636,15.244,37.545,37.545c0.156,1.817,0.952,3.426,2.149,4.622c1.498,1.497,3.621,2.348,5.895,2.154
	c4.092-0.351,7.126-3.952,6.776-8.044C445.264,83.679,426.161,64.577,396.689,62.056z"/>
<path d="M53.839,79.249L220.955,203.99l-55.781,64.4c-2.689,3.104-2.352,7.801,0.752,10.49c1.407,1.218,3.14,1.816,4.866,1.816
	c2.082,0,4.153-0.87,5.624-2.568l61.015-70.443c0.001-0.001,0.001-0.001,0.002-0.002l0,0l107.49-124.1
	c26.72-30.849,63.817-49.889,104.459-53.615l11.54-1.057c5.47-0.501,10.818,1.436,14.695,5.314
	c3.878,3.877,5.815,9.233,5.314,14.695l-1.057,11.54c-2.451,26.738-11.787,52.568-26.999,74.694
	c-2.327,3.385-1.469,8.015,1.915,10.342c3.386,2.328,8.015,1.469,10.342-1.915c16.651-24.221,26.87-52.494,29.553-81.763
	l1.057-11.54c0.905-9.874-2.597-19.559-9.608-26.57c-7.012-7.011-16.699-10.51-26.57-9.608l-11.54,1.057
	c-44.487,4.079-85.095,24.921-114.343,58.69l-17.76,20.504l-40.965-16.978l2.191-2.191c6.524-6.525,6.524-17.141,0-23.665
	L264.734,39.1c-6.524-6.522-17.14-6.524-23.665,0l-17.128,17.128l-19.694-8.162l4.936-4.936c6.524-6.525,6.524-17.14,0-23.664
	L196.767,7.05c-6.526-6.524-17.142-6.522-23.665,0L153.23,26.922l-33.485-13.878c-15.873-6.579-33.978-2.978-46.128,9.17
	L51.329,44.502c-4.731,4.731-7.168,11.273-6.686,17.947C45.125,69.123,48.478,75.246,53.839,79.249z M251.586,49.619
	c0.722-0.726,1.903-0.727,2.629,0l12.415,12.415c0.725,0.724,0.725,1.905,0.001,2.629l-6.546,6.545l0,0l-21.273-8.816
	L251.586,49.619z M183.62,17.568c0.723-0.726,1.904-0.727,2.629,0l12.415,12.415c0.725,0.724,0.725,1.904,0,2.628l-9.289,9.29l0,0
	l-21.273-8.816L183.62,17.568z M61.848,55.02l22.287-22.287c5.265-5.264,12.252-8.053,19.381-8.053
	c3.541,0,7.119,0.689,10.537,2.105l191.609,79.412c0.002,0.001-0.002-0.001,0,0l0,0l0,0c0.002,0.001-0.002-0.001,0,0l0,0l0,0
	l-74.94,86.52L62.736,67.329c-1.928-1.438-3.084-3.552-3.258-5.951C59.306,58.979,60.146,56.72,61.848,55.02z"/>
<path d="M507.107,317.391l-12.415-12.417c-6.526-6.524-17.142-6.522-23.665,0l-6.147,6.147l-9.426-22.744l15.289-15.289
	c6.524-6.525,6.524-17.14,0-23.664l-12.415-12.417c-6.526-6.524-17.142-6.523-23.665,0.001l-0.352,0.352l-18.218-43.958
	l19.906-17.242c1.469-1.273,2.934-2.586,4.355-3.903c3.013-2.792,3.191-7.498,0.398-10.509c-2.79-3.012-7.496-3.19-10.509-0.398
	c-1.3,1.204-2.639,2.404-3.982,3.568l-217.29,188.207c-11.357,9.837-23.185,19.094-35.427,27.755
	c-16.904,11.96-34.768,22.862-53.095,32.407c-0.004,0.002-0.008,0.005-0.012,0.007c-4.735,2.466-9.512,4.854-14.334,7.155
	c-5.894,2.813-11.231,0.579-14.26-2.449c-3.028-3.029-5.262-8.366-2.45-14.261c2.451-5.137,5.009-10.221,7.648-15.26
	c0.989-1.889,1.988-3.775,3.006-5.654c0.229-0.423,0.464-0.842,0.694-1.265c1.006-1.843,2.02-3.681,3.053-5.513
	c0.216-0.383,0.437-0.764,0.654-1.147c1.061-1.869,2.132-3.733,3.22-5.589c0.202-0.344,0.407-0.686,0.609-1.03
	c1.109-1.881,2.23-3.755,3.367-5.621c0.206-0.338,0.415-0.675,0.622-1.013c1.132-1.849,2.277-3.69,3.435-5.523
	c0.236-0.374,0.474-0.745,0.711-1.118c1.129-1.775,2.27-3.542,3.422-5.301c0.285-0.434,0.571-0.867,0.857-1.3
	c1.11-1.682,2.232-3.355,3.363-5.02c0.335-0.493,0.672-0.986,1.009-1.478c1.103-1.609,2.216-3.21,3.337-4.803
	c7.973-11.322,16.448-22.294,25.424-32.861c2.658-3.131,2.277-7.824-0.854-10.483c-3.133-2.657-7.823-2.276-10.483,0.854
	c-7.711,9.079-15.062,18.45-22.059,28.072l-67.207-30.423c-12.68-5.741-27.805-2.985-37.642,6.855L4.138,310.56
	c-2.895,2.895-4.39,6.899-4.103,10.984c0.288,4.085,2.33,7.838,5.602,10.298l74.856,56.302c-1.537,3.049-3.053,6.108-4.524,9.19
	c-5.067,10.622-2.964,22.862,5.357,31.183c5.308,5.309,12.21,8.086,19.27,8.086c4.007,0,8.066-0.896,11.912-2.731
	c3.083-1.471,6.142-2.987,9.19-4.523L178,504.205c2.461,3.272,6.214,5.314,10.298,5.602c0.333,0.023,0.664,0.035,0.995,0.035
	c3.734,0,7.328-1.479,9.988-4.139l11.439-11.44c9.84-9.838,12.595-24.966,6.857-37.642l-30.419-67.198
	c10.857-7.895,21.385-16.252,31.55-25.056l87.357-75.665l125.916,168.689c4.003,5.363,10.127,8.715,16.801,9.196
	c0.556,0.04,1.11,0.06,1.664,0.06c6.086,0,11.946-2.41,16.283-6.747l22.286-22.286c12.15-12.149,15.75-30.255,9.172-46.127
	l-12.163-29.348l21.084-21.084C513.631,334.53,513.631,323.915,507.107,317.391z M15.262,320.471l10.835-10.834
	c5.486-5.486,13.922-7.022,20.99-3.822l64.628,29.256c-0.139,0.204-0.275,0.412-0.413,0.616c-0.807,1.192-1.608,2.388-2.405,3.587
	c-0.388,0.584-0.773,1.171-1.158,1.757c-2.71,4.122-5.356,8.285-7.937,12.489c-0.322,0.525-0.646,1.048-0.966,1.574
	c-0.763,1.254-1.519,2.512-2.27,3.773c-0.389,0.652-0.774,1.306-1.159,1.96c-0.725,1.23-1.449,2.46-2.163,3.696
	c-0.364,0.63-0.72,1.264-1.081,1.895c-1.181,2.067-2.346,4.143-3.496,6.228c-0.394,0.715-0.795,1.428-1.185,2.144L15.262,320.471z
	 M204.028,462.756c3.199,7.068,1.664,15.503-3.824,20.99l-10.833,10.834l-54.319-72.22c1.17-0.637,2.334-1.286,3.499-1.934
	c1.664-0.924,3.321-1.859,4.973-2.803c0.78-0.446,1.56-0.891,2.338-1.341c1.244-0.72,2.483-1.446,3.72-2.177
	c0.619-0.366,1.236-0.736,1.854-1.105c4.262-2.546,8.483-5.158,12.663-7.836c0.546-0.35,1.093-0.7,1.638-1.052
	c1.291-0.835,2.58-1.674,3.863-2.522c0.515-0.34,1.027-0.685,1.541-1.027c1.213-0.808,2.43-1.609,3.635-2.428L204.028,462.756z
	 M445.179,247.526c0.723-0.726,1.904-0.726,2.629-0.001l12.415,12.417c0.725,0.724,0.725,1.904,0,2.628l-10.934,10.935
	l-8.816-21.273l0,0L445.179,247.526z M478.497,427.096l-22.287,22.287c-1.699,1.7-3.955,2.532-6.357,2.37
	c-2.4-0.173-4.513-1.331-5.952-3.258L317.339,278.938l0,0l86.904-75.273l0,0l0,0c0.001,0.002-0.001-0.002,0,0l80.202,193.516
	c0,0.001,0-0.001,0,0l0,0l0,0C488.712,407.474,486.378,419.216,478.497,427.096z M496.589,330.536l-16.729,16.73l-8.817-21.274
	l10.502-10.501c0.723-0.726,1.904-0.726,2.629-0.001l12.415,12.416v0.001C497.314,328.632,497.314,329.812,496.589,330.536z"/>
<g>
</g>
<g>
</g>
<g>
</g>
<g>
</g>
<g>
</g>
<g>
</g>
<g>
</g>
<g>
</g>
<g>
</g>
<g>
</g>
<g>
</g>
<g>
</g>
<g>
</g>
<g>
</g>
<g>
</g>
</svg>
