<svg id="Layer_1" enable-background="new 0 0 512 512" height="20" viewBox="0 0 512 512" width="20" xmlns="http://www.w3.org/2000/svg"><g clip-rule="evenodd" fill-rule="evenodd"><g><g><path d="m18 299.269h19.314c1.102 0 2-.898 2-2v-14.227c0-1.102.898-2 2-2h33.849c1.102 0 2 .898 2 2v14.227c0 1.102.898 2 2 2h97.375c1.102 0 2-.898 2-2v-14.227c0-1.102.898-2 2-2h33.849c1.102 0 2 .898 2 2v14.227c0 1.102.898 2 2 2h19.313c1.102 0 2 .898 2 2v22.359c0 1.102-.898 2-2 2h-219.7c-1.101 0-2-.898-2-2v-22.359c0-1.102.898-2 2-2z" fill="#837683"/><path d="m18 299.269h19.314c1.102 0 2-.898 2-2v10c0 1.1-.899 2-2 2h-21.314v-8.001c0-1.101.898-1.999 2-1.999zm21.314-8.226h25.849c1.101 0 2 .898 2 2v14.227c0 1.102.899 2 2 2h107.375c1.1 0 2-.9 2-2v-10c0 1.102-.898 2-2 2h-97.376c-1.102 0-2-.898-2-2v-14.227c0-1.102-.898-2-2-2h-33.848c-1.101 0-2 .898-2 2zm139.223 0v-8.001c0-1.102.898-2 2-2h33.849c1.102 0 2 .898 2 2v14.227c0 1.102.898 2 2 2h19.314c1.102 0 2 .898 2 2v22.359c0 1.102-.898 2-2 2h-8.001v-14.358c0-1.102-.899-2-2-2h-19.314c-1.102 0-2-.898-2-2v-14.227c0-1.102-.898-2-2-2z" fill="#685e68"/></g><g><path d="m412.92 314.84h77.531c3.052 0 5.549 2.497 5.549 5.549v24.22c0 3.051-2.497 5.549-5.549 5.549h-77.531c-3.052 0-5.549-2.497-5.549-5.549v-24.22c.001-3.053 2.497-5.549 5.549-5.549z" fill="#ffe177"/><path d="m480.451 314.84h10c3.052 0 5.549 2.497 5.549 5.549v24.22c0 3.052-2.497 5.549-5.549 5.549h-10c3.052 0 5.549-2.497 5.549-5.549v-24.22c0-3.053-2.497-5.549-5.549-5.549z" fill="#ffd064"/><path d="m282.916 314.84h117.532c3.052 0 5.549 2.498 5.549 5.549v24.22c0 3.051-2.498 5.549-5.549 5.549h-117.532c-3.051 0-5.549-2.497-5.549-5.549v-24.22c0-3.053 2.497-5.549 5.549-5.549z" fill="#ffd064"/><path d="m292.916 314.84h-10c-3.052 0-5.549 2.497-5.549 5.549v24.22c0 3.052 2.497 5.549 5.549 5.549h10c-3.052 0-5.549-2.497-5.549-5.549v-24.22c0-3.053 2.497-5.549 5.549-5.549z" fill="#ffe177"/><path d="m467.5 450.108v37.837c0 4.43-3.625 8.055-8.055 8.055h-11.096c-4.43 0-8.055-3.625-8.055-8.055v-37.837c0-4.43 3.625-8.055 8.055-8.055h11.096c4.43 0 8.055 3.625 8.055 8.055zm-134.428 0v37.837c0 4.43-3.625 8.055-8.055 8.055h-11.096c-4.43 0-8.055-3.625-8.055-8.055v-37.837c0-4.43 3.625-8.055 8.055-8.055h11.096c4.431 0 8.055 3.625 8.055 8.055z" fill="#837683"/><path d="m467.5 450.108v37.837c0 4.43-3.625 8.055-8.055 8.055h-10c4.431 0 8.055-3.625 8.055-8.055v-37.837c0-4.43-3.625-8.055-8.055-8.055h10c4.43 0 8.055 3.625 8.055 8.055zm-134.428 0v37.837c0 4.43-3.625 8.055-8.055 8.055h-10c4.431 0 8.055-3.625 8.055-8.055v-37.837c0-4.43-3.625-8.055-8.055-8.055h10c4.431 0 8.055 3.625 8.055 8.055z" fill="#685e68"/><path d="m312.783 279.587h147.8c9.122 0 16.584 7.463 16.584 16.584v172.039c0 3.3-2.699 5.999-5.999 5.999h-168.969c-3.3 0-6-2.699-6-5.999v-172.039c0-9.121 7.463-16.584 16.584-16.584z" fill="#ffe177"/><path d="m466.186 280.568c6.386 2.311 10.981 8.446 10.981 15.604v172.038c0 3.3-2.699 5.999-5.999 5.999h-168.969c-3.3 0-6-2.699-6-5.999v-4.001h164.968c3.3 0 6-2.699 6-6v-172.038c0-1.964-.347-3.851-.981-5.603z" fill="#ffd064"/><path d="m442.477 417.843c7.688 0 13.921 6.232 13.921 13.92s-6.233 13.921-13.921 13.921-13.921-6.233-13.921-13.921c.001-7.688 6.233-13.92 13.921-13.92zm-111.588 0c7.688 0 13.921 6.232 13.921 13.92s-6.233 13.921-13.921 13.921-13.921-6.233-13.921-13.921c.001-7.688 6.233-13.92 13.921-13.92z" fill="#eceff1"/><path d="m442.477 417.843c.815 0 1.614.071 2.39.205-6.549 1.133-11.531 6.842-11.531 13.715s4.981 12.582 11.531 13.715c-.776.134-1.575.205-2.39.205-7.688 0-13.921-6.233-13.921-13.921.001-7.687 6.233-13.919 13.921-13.919zm-111.588 0c.815 0 1.613.071 2.39.205-6.549 1.133-11.53 6.842-11.53 13.715s4.981 12.582 11.53 13.715c-.776.134-1.575.205-2.39.205-7.688 0-13.921-6.233-13.921-13.921.001-7.687 6.233-13.919 13.921-13.919z" fill="#d1d1d6"/><path d="m312.978 283.663h147.41c9.097 0 16.54 7.443 16.54 16.541v92.9h-180.49v-92.9c0-9.097 7.443-16.541 16.54-16.541z" fill="#d8ecfe"/><g fill="#c4e2ff"><path d="m366.439 283.663h13.76v109.441h-13.76z"/><path d="m449.141 283.663h11.247c9.097 0 16.54 7.443 16.54 16.54v92.901h-11.247v-92.901c0-9.096-7.442-16.54-16.54-16.54z"/></g></g><g><path d="m85.025 16h123.958c21.533 0 40.009 10.921 50.39 29.787 36.723 66.732 80.897 102.5 205.616 138.874 2.167.631 3.603 2.543 3.603 4.8v61.541c0 2.754-2.246 5-5 5h-391.718c-30.774-.002-55.874-25.101-55.874-55.875v-82.747c0-5.174.569-9.591 1.883-14.596l11.508-43.862c6.726-25.638 29.129-42.922 55.634-42.922z" fill="#8ac9fe"/><path d="m244.719 28.212c5.828 4.662 10.8 10.57 14.654 17.575 8.591 15.611 17.59 29.528 27.933 42.154-15.878-16.156-28.52-34.476-40.381-56.028-.698-1.271-1.435-2.504-2.206-3.701zm211.425 153.824c2.907.874 5.846 1.749 8.845 2.624 2.167.631 3.603 2.543 3.603 4.8v61.541c0 2.754-2.246 5-5 5h-391.718c-19.83 0-37.302-10.424-47.222-26.07 9.554 7.627 21.647 12.196 34.775 12.196h391.719c2.754 0 5-2.246 5-5v-55.091z" fill="#60b7ff"/><path d="m263.571 117.535v53.838c0 2.002 1.1 3.715 2.921 4.547 7.293 3.334 14.848 6.611 22.678 9.828 1.59.653 3.256.485 4.684-.471 1.428-.957 2.216-2.435 2.216-4.153v-42.545c0-1.565-.644-2.911-1.863-3.893-8.03-6.471-15.282-13.289-21.959-20.538-1.424-1.546-3.538-2.034-5.496-1.27-1.957.764-3.181 2.556-3.181 4.657zm182.014 109.209v-20.222c0-2.256-1.434-4.168-3.6-4.8-5.982-1.744-11.776-3.488-17.394-5.234-1.567-.487-3.127-.224-4.448.749s-2.035 2.385-2.035 4.026v21.408c0 2.34 1.556 4.314 3.831 4.861 5.747 1.382 11.595 2.744 17.545 4.088 1.533.346 2.996.01 4.223-.971 1.228-.981 1.878-2.334 1.878-3.905zm-78.989-43.488v25.761c0 2.256 1.433 4.167 3.599 4.799 6.275 1.832 12.69 3.637 19.245 5.414 1.553.421 3.068.123 4.346-.854 1.278-.978 1.962-2.362 1.962-3.971v-23.915c0-2.15-1.288-3.98-3.312-4.706-6.612-2.371-12.935-4.759-18.989-7.172-1.588-.633-3.242-.453-4.657.506s-2.194 2.429-2.194 4.138zm-51.513-24.743v33.783c0 2.146 1.283 3.974 3.302 4.702 6.795 2.453 13.773 4.869 20.954 7.243 1.573.52 3.155.276 4.498-.695 1.343-.97 2.072-2.396 2.072-4.052v-29.786c0-1.952-1.041-3.624-2.792-4.486-7.284-3.585-14.097-7.249-20.495-11.017-1.589-.936-3.418-.948-5.018-.033-1.602.915-2.521 2.497-2.521 4.341z" fill="#d8ecfe"/><path d="m263.571 117.535v53.838c0 2.002 1.1 3.715 2.921 4.547 1.609.736 3.23 1.468 4.865 2.198v-52.585c0-2.101 1.224-3.893 3.182-4.658 1.777-.694 3.683-.355 5.085.87-2.537-2.48-4.993-5.011-7.375-7.597-1.424-1.546-3.538-2.034-5.496-1.27s-3.182 2.556-3.182 4.657zm32.421 20.123c-.205-1.173-.812-2.189-1.784-2.972-5.011-4.039-9.72-8.212-14.174-12.541h.001c4.972 5.399 10.263 10.558 15.957 15.513zm149.593 70.832v-1.968c0-2.256-1.434-4.168-3.6-4.8-5.982-1.744-11.776-3.488-17.394-5.234-1.567-.487-3.127-.224-4.448.749s-2.035 2.385-2.035 4.026v21.408c0 2.34 1.556 4.314 3.831 4.861 1.313.316 2.631.63 3.955.944v-19.216c0-1.641.714-3.053 2.035-4.026s2.881-1.235 4.448-.749c4.298 1.337 8.699 2.671 13.208 4.005zm-78.989-25.234v25.761c0 2.256 1.433 4.167 3.599 4.799 1.389.406 2.785.81 4.187 1.213v-23.776c0-1.709.779-3.179 2.194-4.138s3.069-1.139 4.657-.506c4.675 1.863 9.51 3.712 14.515 5.549v-1.668c0-2.15-1.288-3.98-3.312-4.706-6.612-2.371-12.935-4.759-18.989-7.172-1.588-.633-3.242-.453-4.657.506s-2.194 2.429-2.194 4.138zm-51.513-24.743v33.783c0 2.146 1.283 3.974 3.302 4.702 1.486.537 2.98 1.071 4.484 1.604v-32.092c0-1.844.918-3.426 2.519-4.341 1.6-.915 3.43-.903 5.018.033 4.914 2.894 10.073 5.727 15.502 8.51v-1.004c0-1.952-1.041-3.624-2.792-4.486-7.284-3.585-14.097-7.249-20.495-11.017-1.589-.936-3.418-.948-5.018-.033-1.601.915-2.52 2.497-2.52 4.341z" fill="#c4e2ff"/><path d="m88.409 43.898c-14.905 0-27.218 9.51-31 23.943l-8.177 31.203c-.62 2.367-.154 4.667 1.339 6.605s3.597 2.973 6.042 2.973h151.747c2.317 0 4.312-.923 5.813-2.69s2.091-3.886 1.719-6.176l-5.189-31.914c-2.394-14.728-16.096-23.943-31-23.943h-91.294z" fill="#d8ecfe"/><path d="m88.409 43.898c-14.905 0-27.218 9.51-31 23.943l-8.177 31.203c-.62 2.367-.154 4.667 1.339 6.605s3.597 2.973 6.042 2.973h10c-2.445 0-4.548-1.035-6.042-2.973-1.493-1.938-1.959-4.238-1.339-6.605l8.177-31.203c3.782-14.433 16.095-23.943 31-23.943z" fill="#c4e2ff"/><path d="m193.251 147.971c12.22 0 22.127 9.907 22.127 22.127s-9.907 22.127-22.127 22.127-22.127-9.906-22.127-22.127c0-12.22 9.906-22.127 22.127-22.127zm-128.351 0c12.22 0 22.127 9.907 22.127 22.127s-9.907 22.127-22.127 22.127-22.127-9.906-22.127-22.127c0-12.22 9.907-22.127 22.127-22.127z" fill="#eceff1"/><path d="m193.251 147.971c1.467 0 2.901.144 4.288.417-10.168 1.997-17.839 10.957-17.839 21.71s7.671 19.713 17.839 21.71c-1.388.273-2.821.417-4.288.417-12.22 0-22.127-9.906-22.127-22.127 0-12.22 9.906-22.127 22.127-22.127zm-128.351 0c1.467 0 2.901.144 4.288.417-10.168 1.997-17.839 10.957-17.839 21.71s7.671 19.713 17.839 21.71c-1.387.273-2.821.417-4.288.417-12.22 0-22.127-9.906-22.127-22.127 0-12.22 9.907-22.127 22.127-22.127z" fill="#d1d1d6"/></g></g><path d="m231.695 317.632h-207.723v-10.363h15.355c4.38 0 8.007-3.58 8.007-7.998v-10.231h21.809v10.231c0 4.418 3.58 7.998 8.008 7.998h101.365c4.428 0 8.007-3.58 8.007-7.998v-10.231h21.856v10.231c0 4.418 3.58 7.998 8.007 7.998h15.309zm8.008-26.364h-15.309v-10.226c0-4.418-3.58-8.003-8.008-8.003h-37.871c-4.381 0-7.961 3.585-7.961 8.003v10.226h-85.396v-10.226c0-4.418-3.58-8.003-8.007-8.003h-37.824c-4.428 0-8.008 3.585-8.008 8.003v10.226h-15.308c-4.428 0-8.008 3.58-8.008 8.003v26.358c0 4.418 3.58 7.998 8.008 7.998h223.692c4.428 0 8.007-3.58 8.007-7.998v-26.358c0-4.423-3.58-8.003-8.007-8.003zm-46.444-107.046c-7.819 0-14.131-6.335-14.131-14.126 0-7.786 6.312-14.126 14.131-14.126 7.772 0 14.131 6.34 14.131 14.126 0 7.791-6.359 14.126-14.131 14.126zm0-44.253c-16.627 0-30.146 13.519-30.146 30.127 0 16.613 13.518 30.127 30.146 30.127 16.627 0 30.099-13.514 30.099-30.127 0-16.608-13.472-30.127-30.099-30.127zm-128.355 16.001c7.772 0 14.131 6.34 14.131 14.126 0 7.791-6.359 14.126-14.131 14.126-7.819 0-14.131-6.335-14.131-14.126 0-7.786 6.312-14.126 14.131-14.126zm0 44.253c16.58 0 30.099-13.514 30.099-30.127 0-16.609-13.519-30.127-30.099-30.127-16.627 0-30.146 13.519-30.146 30.127 0 16.613 13.519 30.127 30.146 30.127zm.235-130.353c2.873-10.919 12.011-17.975 23.269-17.975h91.285c10.08 0 21.291 5.921 23.128 17.23l5.087 31.493h-150.823zm-8.525 46.75h151.718c4.663 0 8.902-1.955 11.917-5.511 3.015-3.547 4.286-8.04 3.533-12.638l-5.182-31.917c-2.873-17.762-19.265-30.659-38.907-30.659h-91.285c-18.464 0-34.056 12.021-38.765 29.915l-8.149 31.201c-1.272 4.795-.283 9.595 2.732 13.518 3.014 3.929 7.442 6.091 12.388 6.091zm214.93 8.403c5.228 5.266 10.692 10.245 16.533 14.983v36.622c-5.605-2.35-11.163-4.757-16.533-7.188zm-11.352 56.811c10.504 4.861 21.573 9.618 32.925 14.135.942.382 1.931.57 2.967.57 1.555 0 3.109-.466 4.475-1.38 2.214-1.489 3.486-3.966 3.486-6.623v-52.369c0-2.45-1.083-4.767-3.015-6.284-11.635-9.166-21.856-19.246-31.229-30.819-2.167-2.633-5.699-3.641-8.902-2.506-3.203 1.131-5.323 4.15-5.323 7.541v70.475c0 3.115 1.79 5.946 4.616 7.26zm165.897 23.495c3.768 1.149 7.584 2.299 11.493 3.438v14.216c-3.863-.881-7.678-1.78-11.493-2.68zm-9.892 29.048c8.997 2.186 18.276 4.343 27.649 6.415.565.127 1.178.189 1.743.189 1.79 0 3.58-.608 4.993-1.762 1.884-1.516 3.015-3.811 3.015-6.236v-30.217c0-3.566-2.355-6.702-5.794-7.687-9.468-2.732-18.653-5.511-27.272-8.253-2.449-.777-5.087-.344-7.16 1.163-2.025 1.503-3.25 3.905-3.25 6.458v32.157c0 3.689 2.496 6.897 6.076 7.773zm-93.122-70.668c4.757 2.671 9.656 5.285 14.837 7.862v23.759c-4.993-1.677-9.939-3.396-14.837-5.143zm-10.74 39.599c10.127 3.716 20.631 7.311 31.135 10.688.801.259 1.602.386 2.449.386 1.649 0 3.297-.523 4.71-1.536 2.072-1.507 3.297-3.91 3.297-6.462v-39.802c0-3.076-1.79-5.878-4.569-7.212-11.022-5.323-20.867-10.73-30.004-16.528-2.449-1.564-5.558-1.663-8.149-.259-2.544 1.408-4.098 4.093-4.098 7.014v46.199c.001 3.358 2.073 6.358 5.229 7.512zm62.27-15.647c4.24 1.658 8.62 3.302 13.142 4.937v17.876c-4.428-1.22-8.855-2.459-13.142-3.707zm-10.268 32.769c9.468 2.807 19.359 5.572 29.345 8.224.706.179 1.366.264 2.072.264 1.743 0 3.439-.57 4.852-1.658 1.979-1.512 3.156-3.858 3.156-6.34v-33.961c0-3.391-2.167-6.415-5.37-7.541-10.174-3.599-19.878-7.292-28.733-10.985-2.449-1.027-5.276-.749-7.489.735-2.261 1.484-3.58 3.98-3.58 6.656v36.933c0 3.542 2.355 6.665 5.747 7.673zm-340.365-103.052v82.746c0 26.396 21.526 47.875 47.904 47.875h388.693v-56.293c-61.705-18.125-103.485-36.067-135.044-57.894-30.381-21.041-52.284-46.213-73.151-84.168-8.997-16.298-24.776-25.643-43.382-25.643h-123.975c-22.845 0-42.11 14.847-47.903 36.952l-11.494 43.858c-1.131 4.329-1.648 8.088-1.648 12.567zm47.903 146.622h396.7c4.428 0 8.007-3.584 8.007-8.003v-70.292c0-3.566-2.355-6.703-5.793-7.687-130.899-37.729-170.23-73.942-204.427-136.09-11.87-21.564-32.783-33.928-57.371-33.928h-123.974c-30.24 0-55.676 19.647-63.353 48.893l-11.54 43.857c-1.46 5.653-2.12 10.782-2.12 16.627v82.746c-.001 35.22 28.638 63.877 63.871 63.877zm337.681 167.757c0 4.423-3.58 8.003-8.008 8.003h-29.769c-4.428 0-8.007-3.58-8.007-8.003 0-4.418 3.58-7.998 8.007-7.998h29.769c4.428 0 8.008 3.58 8.008 7.998zm32.924 5.921c-3.25 0-5.935-2.652-5.935-5.921 0-3.259 2.685-5.916 5.935-5.916s5.935 2.657 5.935 5.916c0 3.269-2.684 5.921-5.935 5.921zm0-27.838c-12.105 0-21.903 9.84-21.903 21.917 0 12.091 9.797 21.922 21.903 21.922s21.903-9.831 21.903-21.922c0-12.077-9.797-21.917-21.903-21.917zm-111.586 27.838c-3.25 0-5.935-2.652-5.935-5.921 0-3.259 2.685-5.916 5.935-5.916s5.935 2.657 5.935 5.916c0 3.269-2.685 5.921-5.935 5.921zm0-27.838c-12.105 0-21.95 9.84-21.95 21.917 0 12.091 9.845 21.922 21.95 21.922 12.058 0 21.903-9.831 21.903-21.922-.001-12.077-9.845-21.917-21.903-21.917zm157.088-67.682h-2.826v-19.322h2.826zm-28.545 145.84-11.163-.047v-5.742h11.21zm-134.431 0-11.163-.047v-5.742h11.211zm-39.661-145.84v-19.322h2.826v19.322zm27.461-54.573h65.897v93.735h-74.517v-85.153c0-4.729 3.863-8.582 8.62-8.582zm-8.62 178.624h165.002v-68.889h-165.002zm165.002-170.042v85.153h-74.517v-93.735h65.897c4.757 0 8.62 3.853 8.62 8.582zm21.243 10.674h-5.276v-10.674c0-13.552-11.022-24.578-24.588-24.578h-147.761c-13.566 0-24.635 11.027-24.635 24.578v10.674h-5.276c-7.442 0-13.518 6.081-13.518 13.551v24.216c0 7.47 6.076 13.551 13.518 13.551h5.276v116.048c0 4.423 3.58 8.003 8.008 8.003h1.696v5.742c0 8.846 7.207 16.048 16.062 16.048h11.069c8.855 0 16.062-7.202 16.062-16.048v-5.742h91.238v5.742c0 8.846 7.207 16.048 16.062 16.048h11.069c8.855 0 16.062-7.202 16.062-16.048v-5.742h1.649c4.428 0 8.008-3.58 8.008-8.003v-116.048h5.276c7.489 0 13.565-6.081 13.565-13.551v-24.216c0-7.471-6.076-13.551-13.566-13.551z"/></g></svg>