<svg height="20" width="20" version="1.1" id="Layer_1" xmlns="http://www.w3.org/2000/svg" xmlns:xlink="http://www.w3.org/1999/xlink" x="0px" y="0px" viewBox="0 0 512 512" style="enable-background:new 0 0 512 512;" xml:space="preserve">
<g>
	<g>
		<g>
			<path style="fill-rule:evenodd;clip-rule:evenodd;fill:#6864F7;" d="M70.245,238.926v-78.965v-27.965&#10;&#9;&#9;&#9;&#9;c0-16.568-13.555-30.123-30.123-30.123C23.555,101.873,10,115.428,10,131.996v106.93c0,16.568,13.555,30.122,30.123,30.122&#10;&#9;&#9;&#9;&#9;C56.691,269.048,70.245,255.494,70.245,238.926z"/>
			<path style="fill-rule:evenodd;clip-rule:evenodd;fill:#B1D952;" d="M186.42,159.961c0-31.948-26.139-58.088-58.088-58.088&#10;&#9;&#9;&#9;&#9;c-31.948,0-58.087,26.146-58.087,58.088v214.47L38.87,463.327c-5.312,15.051,2.656,31.713,17.708,37.026&#10;&#9;&#9;&#9;&#9;c15.052,5.313,31.705-2.659,37.026-17.708l34.694-98.118l0.035-0.061v88.49c0,15.974,13.07,29.044,29.044,29.044&#10;&#9;&#9;&#9;&#9;s29.044-13.073,29.044-29.044C186.42,368.624,186.42,264.293,186.42,159.961z"/>
			<circle style="fill-rule:evenodd;clip-rule:evenodd;fill:#D46B5C;" cx="141.237" cy="55.184" r="45.184"/>
			<path style="fill-rule:evenodd;clip-rule:evenodd;fill:#D46B5C;" d="M186.42,177.034h-63.087v23.089&#10;&#9;&#9;&#9;&#9;c0,12.752,10.337,23.089,23.089,23.089h39.998h27.256c12.751,0,23.089-10.337,23.089-23.089&#10;&#9;&#9;&#9;&#9;c0-12.752-10.338-23.089-23.089-23.089H186.42z"/>
			<path style="fill-rule:evenodd;clip-rule:evenodd;fill:#91B706;" d="M135.866,102.365c-2.467-0.323-4.981-0.492-7.533-0.492&#10;&#9;&#9;&#9;&#9;c-31.948,0-58.087,26.146-58.087,58.088v214.47L38.87,463.327c-5.312,15.051,2.656,31.713,17.708,37.026&#10;&#9;&#9;&#9;&#9;c15.052,5.313,31.705-2.659,37.026-17.708l34.694-98.118l0.035-0.061v88.49c0,15.974,13.07,29.044,29.044,29.044&#10;&#9;&#9;&#9;&#9;s29.044-13.073,29.044-29.044v-94.982c-39.598-52.217-63.108-117.305-63.108-187.892&#10;&#9;&#9;&#9;&#9;C123.312,159.62,127.708,130.189,135.866,102.365z"/>
			<path style="fill-rule:evenodd;clip-rule:evenodd;fill:#BC9AF4;" d="M186.42,472.956V269.048h-52.99l-63.185,5.02v100.363&#10;&#9;&#9;&#9;&#9;L38.87,463.327c-5.312,15.051,2.656,31.713,17.708,37.026c15.052,5.313,31.705-2.659,37.026-17.708l34.694-98.118l0.035-0.061&#10;&#9;&#9;&#9;&#9;v88.49c0,15.974,13.07,29.044,29.044,29.044S186.42,488.927,186.42,472.956z"/>
			<path style="fill-rule:evenodd;clip-rule:evenodd;fill:#6864F7;" d="M186.42,472.956v-94.982&#10;&#9;&#9;&#9;&#9;c-24.291-32.032-42.52-68.909-52.99-108.926H70.245v105.383L38.87,463.327c-5.312,15.051,2.656,31.713,17.708,37.026&#10;&#9;&#9;&#9;&#9;c15.052,5.313,31.705-2.659,37.026-17.708l34.694-98.118l0.035-0.061v88.49c0,15.974,13.07,29.044,29.044,29.044&#10;&#9;&#9;&#9;&#9;S186.42,488.927,186.42,472.956z"/>
		</g>
		<path style="fill-rule:evenodd;clip-rule:evenodd;fill:#FD6050;" d="M371.469,75.265c0,36.143,42.69,81.405,65.265,107.3&#10;&#9;&#9;&#9;C459.31,156.67,502,111.408,502,75.265C502,39.22,472.779,10,436.734,10C400.689,10,371.469,39.22,371.469,75.265z"/>
		
			<ellipse transform="matrix(0.9999 -0.0158 0.0158 0.9999 -1.1363 6.9202)" style="fill-rule:evenodd;clip-rule:evenodd;fill:#FFFFFF;" cx="436.734" cy="75.265" rx="23.309" ry="23.309"/>
	</g>
	<g>
		<g>
			
				<path style="fill-rule:evenodd;clip-rule:evenodd;fill:none;stroke:#052A75;stroke-width:20;stroke-linecap:round;stroke-linejoin:round;stroke-miterlimit:2.6131;" d="&#10;&#9;&#9;&#9;&#9;M186.42,172.014v-12.053c0-31.948-26.139-58.088-58.087-58.088c-31.948,0-58.087,26.146-58.087,58.088v214.47L38.87,463.327&#10;&#9;&#9;&#9;&#9;c-5.312,15.051,2.656,31.713,17.708,37.026c15.052,5.313,31.704-2.659,37.026-17.708l34.324-97.07"/>
			
				<path style="fill-rule:evenodd;clip-rule:evenodd;fill:none;stroke:#052A75;stroke-width:20;stroke-linecap:round;stroke-linejoin:round;stroke-miterlimit:2.6131;" d="&#10;&#9;&#9;&#9;&#9;M186.42,228.233v244.723c0,15.97-13.069,29.044-29.044,29.044l0,0c-15.974,0-29.044-13.069-29.044-29.044V332.805"/>
			
				<circle style="fill-rule:evenodd;clip-rule:evenodd;fill:none;stroke:#052A75;stroke-width:20;stroke-linecap:round;stroke-linejoin:round;stroke-miterlimit:2.6131;" cx="141.237" cy="55.184" r="45.184"/>
			
				<path style="fill-rule:evenodd;clip-rule:evenodd;fill:none;stroke:#052A75;stroke-width:20;stroke-linecap:round;stroke-linejoin:round;stroke-miterlimit:2.6131;" d="&#10;&#9;&#9;&#9;&#9;M40.123,101.873L40.123,101.873C23.555,101.873,10,115.428,10,131.996v106.93c0,16.567,13.555,30.123,30.122,30.123h0.001&#10;&#9;&#9;&#9;&#9;c16.567,0,30.122-13.555,30.122-30.123v-106.93C70.245,115.428,56.69,101.873,40.123,101.873z"/>
			
				<path style="fill-rule:evenodd;clip-rule:evenodd;fill:none;stroke:#052A75;stroke-width:20;stroke-linecap:round;stroke-linejoin:round;stroke-miterlimit:2.6131;" d="&#10;&#9;&#9;&#9;&#9;M123.312,159.961v40.162c0,12.752,10.337,23.089,23.089,23.089h67.274c12.752,0,23.089-10.337,23.089-23.089&#10;&#9;&#9;&#9;&#9;c0-12.752-10.337-23.089-23.089-23.089h-85.343"/>
			
				<path style="fill-rule:evenodd;clip-rule:evenodd;fill:none;stroke:#052A75;stroke-width:20;stroke-linecap:round;stroke-linejoin:round;stroke-miterlimit:2.6131;" d="&#10;&#9;&#9;&#9;&#9;M436.734,10c-36.045,0-65.265,29.22-65.265,65.265c0,36.143,42.69,81.405,65.265,107.3C459.31,156.67,502,111.408,502,75.265&#10;&#9;&#9;&#9;&#9;C502,39.22,472.779,10,436.734,10z"/>
		</g>
		
			<path style="fill-rule:evenodd;clip-rule:evenodd;fill:none;stroke:#93B2F4;stroke-width:20;stroke-linecap:round;stroke-linejoin:round;stroke-miterlimit:2.6131;" d="&#10;&#9;&#9;&#9;M231.604,472.956h196.277c26.959,0,49.016-22.057,49.016-49.016c0-26.959-22.057-49.016-49.016-49.016H318.959&#10;&#9;&#9;&#9;c-22.64,0-41.167-18.525-41.167-41.168s18.525-41.167,41.167-41.167h86.146c17.396,0,31.628-14.232,31.628-31.629V227.75"/>
	</g>
</g>
<g>
</g>
<g>
</g>
<g>
</g>
<g>
</g>
<g>
</g>
<g>
</g>
<g>
</g>
<g>
</g>
<g>
</g>
<g>
</g>
<g>
</g>
<g>
</g>
<g>
</g>
<g>
</g>
<g>
</g>
</svg>