<svg height="20" width="20" id="Layer_1" viewBox="0 0 512 512" xmlns="http://www.w3.org/2000/svg" data-name="Layer 1"><path d="m319.442 286.644h118.847v-16.374c0-9.006-7.368-16.374-16.374-16.374h-86.1c-9.006 0-16.373 7.368-16.373 16.374z" fill="#f5b000" fill-rule="evenodd"/><path d="m332.504 286.644h105.785v-16.374c0-9.006-7.368-16.374-16.374-16.374h-73.038c-9.006 0-16.374 7.368-16.374 16.374v16.374z" fill="#ffbd1c" fill-rule="evenodd"/><path d="m419.194 466.386h19.564c6.787 0 12.339-5.553 12.339-12.339v-16.554h-44.243v16.554c0 6.787 5.552 12.339 12.339 12.339z" fill="#5f7080" fill-rule="evenodd"/><path d="m432.256 466.386h6.502c6.787 0 12.339-5.553 12.339-12.339v-16.554h-31.181v16.554c0 6.787 5.552 12.339 12.339 12.339z" fill="#77899b" fill-rule="evenodd"/><path d="m313.856 466.386h19.564c6.787 0 12.339-5.553 12.339-12.339v-16.554h-44.242v16.554c0 6.787 5.552 12.339 12.339 12.339z" fill="#5f7080" fill-rule="evenodd"/><path d="m326.918 466.386h6.502c6.787 0 12.339-5.553 12.339-12.339v-16.554h-31.18v16.554c0 6.787 5.552 12.339 12.339 12.339z" fill="#77899b" fill-rule="evenodd"/><path d="m81.908 270.609h124.151v105.051h-124.151z" fill="#e5eaf1"/><path d="m98.033 270.609h108.026v105.051h-108.026z" fill="#f3f5fb"/><path d="m76.82 431.35c-17.309-26.626-29.741-49.573-29.828-77.24 33.292 0 72.35-10.95 96.992-35.591 24.642 24.641 63.699 35.591 96.992 35.591-.087 27.435-12.315 50.231-29.396 76.573-9.968-1.599-19.579-5.992-27.583-13.183-20.583 18.493-51.797 18.493-72.381 0-9.922 8.914-22.314 13.529-34.794 13.85z" fill="#fb695b" fill-rule="evenodd"/><path d="m64.031 353.182c28.876-3.106 59.419-14.13 79.953-34.664 24.642 24.641 63.699 35.591 96.992 35.591-.087 27.435-12.315 50.231-29.396 76.573-9.968-1.599-19.579-5.992-27.583-13.183-20.583 18.493-51.797 18.493-72.381 0-5.587 5.019-11.957 8.676-18.686 10.97-16.716-25.854-28.66-48.349-28.898-75.287z" fill="#fd7a6e" fill-rule="evenodd"/><rect fill="#4677d5" height="26.263" rx="5.609" width="151.25" x="68.359" y="253.896"/><rect fill="#5c85da" height="26.263" rx="5.609" width="136.625" x="82.984" y="253.896"/><rect fill="#4677d5" height="166.135" rx="12.039" width="187.803" x="284.964" y="277.077"/><rect fill="#5c85da" height="166.135" rx="12.039" width="174.741" x="298.026" y="277.077"/><path d="m314.522 424.829h31.736c-1.28-13.989-13.13-25.042-27.438-25.042h-13.992v15.347c0 5.331 4.362 9.694 9.694 9.694z" fill="#f5b000" fill-rule="evenodd"/><path d="m324.084 424.829h22.173c-1.28-13.989-13.13-25.042-27.438-25.042h-4.429v15.347c0 5.331 4.362 9.694 9.694 9.694z" fill="#ffbd1c" fill-rule="evenodd"/><path d="m304.827 296.94h148.077v77.651h-148.077z" fill="#57cffa"/><path d="m317.889 296.94h135.014v77.651h-135.014z" fill="#83deff"/><g fill-rule="evenodd"><path d="m443.209 424.829h-31.736c1.28-13.989 13.13-25.042 27.438-25.042h13.992v15.347c0 5.331-4.363 9.694-9.694 9.694z" fill="#ffbd1c"/><path d="m256 126.27 110.994-21.483c2.696-.522 4.538-2.985 4.275-5.719-.262-2.733-2.538-4.801-5.284-4.801h-219.971c-2.746 0-5.022 2.068-5.284 4.801-.262 2.734 1.579 5.197 4.275 5.719l110.994 21.483z" fill="#cdd4de"/><path d="m280.128 121.6 86.866-16.813c2.696-.522 4.538-2.985 4.275-5.719-.262-2.733-2.538-4.801-5.284-4.801h-219.971c-.902 0-1.753.223-2.499.619.457.242.957.422 1.49.525l110.994 21.483 24.128 4.705z" fill="#e5eaf1"/><path d="m240.742 97.71h30.516l-3.521-52.228c-.217-3.22-2.641-5.868-5.868-5.868h-11.737c-3.227 0-5.651 2.648-5.868 5.868l-3.521 52.228z" fill="#cdd4de"/><path d="m251.054 97.71h20.204l-3.521-52.228c-.217-3.22-2.641-5.868-5.868-5.868h-1.425c-3.227 0-5.651 2.648-5.868 5.868l-3.521 52.228z" fill="#e5eaf1"/><path d="m256 138.695h-240.691c-2.746 0-5.022 2.068-5.284 4.801s1.579 5.197 4.275 5.719l241.699 46.781 241.699-46.781c2.696-.522 4.538-2.986 4.275-5.719-.262-2.733-2.538-4.801-5.284-4.801h-240.691z" fill="#cdd4de"/><path d="m256 138.695h-230.356c.624.467 1.361.802 2.176.96l241.699 46.781 11.837 4.652 216.343-41.873c2.696-.522 4.538-2.986 4.275-5.719-.262-2.733-2.538-4.801-5.284-4.801h-240.691z" fill="#e5eaf1"/><path d="m256 79.733c31.646 0 57.3 49.601 57.3 81.247s-25.654 57.3-57.3 57.3-57.3-25.654-57.3-57.3 25.654-81.247 57.3-81.247z" fill="#e5eaf1"/><path d="m264.906 81.041c27.416 8.028 48.394 51.322 48.394 79.939s-20.978 52.332-48.394 56.61c-27.416-4.279-48.394-27.994-48.394-56.61s20.978-71.911 48.394-79.939z" fill="#f3f5fb"/><path d="m289.059 132.524c0 3.312-2.686 5.999-6 5.999h-54.117c-3.314 0-6-2.687-6-5.999s2.686-6 6-6h54.117c3.314 0 6 2.683 6 6zm27.873 48.542c1.532-5.44 2.368-11.18 2.368-17.113 0-5.088-.604-10.598-1.741-16.276h171.919zm-60.932 34.186c28.288 0 51.3-23.007 51.3-51.299 0-14.748-6.222-34.09-15.849-49.278-10.463-16.501-23.384-25.963-35.451-25.963s-24.986 9.462-35.449 25.963c-9.629 15.188-15.851 34.53-15.851 49.278 0 28.293 23.014 51.299 51.3 51.299zm-102.769-112.008h60.452c-2.371 3.299-4.575 6.801-6.595 10.418zm97.018-54.379c.009-.119.038-.211.066-.273h11.372c.028.062.055.154.064.273l1.934 28.658c-2.512-.528-5.074-.81-7.684-.81s-5.171.282-7.683.81l1.932-28.658zm108.521 54.379-53.859 10.418c-2.018-3.616-4.222-7.118-6.595-10.418zm-336.246 44.432h171.919c-1.139 5.678-1.743 11.189-1.743 16.276 0 5.933.838 11.673 2.369 17.113zm485.423-1.771c-.559-5.841-5.4-10.233-11.255-10.233h-182.261c-1.16-3.63-2.512-7.259-4.045-10.84l57.749-11.18c5.751-1.11 9.665-6.348 9.107-12.18-.561-5.828-5.401-10.228-11.258-10.228h-77.998c-3.739-3.572-7.741-6.612-11.957-8.99l-2.308-34.2c-.439-6.541-5.535-11.462-11.854-11.462h-11.737c-6.318 0-11.415 4.92-11.856 11.462l-2.305 34.2c-4.217 2.379-8.218 5.418-11.957 8.99h-78c-5.856 0-10.696 4.4-11.256 10.228-.559 5.832 3.357 11.07 9.107 12.18l57.748 11.18c-1.533 3.581-2.884 7.211-4.045 10.84h-182.257c-5.857 0-10.697 4.392-11.257 10.233-.559 5.828 3.357 11.07 9.107 12.18l187.326 36.257c10.771 19.602 31.613 32.913 55.514 32.913s44.744-13.312 55.514-32.913l187.324-36.257c5.757-1.119 9.669-6.352 9.109-12.18zm-61.043 272.206c0 2.004-1.691 3.691-3.694 3.691h-24.078c3.35-7.669 11.064-13.038 19.779-13.038h7.992v9.347zm5.999-21.346h-13.992c-17.171 0-31.85 13.4-33.414 30.486-.153 1.683.408 3.352 1.544 4.603 1.138 1.238 2.746 1.951 4.433 1.951h31.736c8.654 0 15.693-7.039 15.693-15.695v-15.347c0-3.308-2.683-6-5.999-6zm-5.999-25.201h-136.077v-65.651h136.077zm5.999-77.65h-148.077c-3.312 0-6 2.687-6 5.999v77.65c0 3.321 2.688 5.999 6 5.999h148.077c3.317 0 5.999-2.678 5.999-5.999v-77.65c0-3.312-2.683-5.999-5.999-5.999zm-138.383 127.888c-2.001 0-3.694-1.687-3.694-3.691v-9.347h7.992c8.715 0 16.427 5.37 19.779 13.038h-24.078zm4.298-25.038h-13.992c-3.312 0-6 2.692-6 6v15.347c0 8.656 7.041 15.695 15.694 15.695h31.738c1.686 0 3.295-.713 4.431-1.951 1.137-1.251 1.698-2.921 1.543-4.603-1.564-17.087-16.241-30.486-33.414-30.486zm147.946 37.389v-142.063c0-3.326-2.709-6.039-6.039-6.039h-163.724c-3.33 0-6.039 2.714-6.039 6.039v142.063c0 3.33 2.71 6.03 6.039 6.03h163.724c3.33 0 6.039-2.7 6.039-6.03zm-21.668 22.87c0 3.489-2.843 6.339-6.34 6.339h-19.564c-3.495 0-6.339-2.85-6.339-6.339v-4.841h32.242v4.841zm-105.338 0c0 3.489-2.844 6.339-6.34 6.339h-19.564c-3.495 0-6.339-2.85-6.339-6.339v-4.841h32.244v4.841zm-14.317-183.782c0-5.717 4.653-10.369 10.372-10.369h86.1c5.721 0 10.374 4.652 10.374 10.369v.811h-106.846zm135.284.811h-16.438v-.811c0-12.329-10.037-22.368-22.374-22.368h-86.1c-12.336 0-22.372 10.039-22.372 22.368v.811h-16.439c-9.947 0-18.039 8.092-18.039 18.038v142.063c0 9.44 7.301 17.201 16.553 17.959v4.911c0 10.109 8.226 18.338 18.339 18.338h19.564c10.112 0 18.34-8.228 18.34-18.338v-4.841h49.096v4.841c0 10.109 8.227 18.338 18.339 18.338h19.564c10.115 0 18.343-8.228 18.343-18.338v-4.841h3.625c9.951 0 18.043-8.087 18.043-18.029v-142.063c0-9.946-8.092-18.038-18.043-18.038zm-199.885 177.43c2.215 2.462 2.011 6.26-.454 8.471-21.617 19.421-53.599 20.531-76.393 3.308-10.709 8.092-23.451 12.145-36.189 12.145s-25.48-4.053-36.191-12.145c-22.794 17.223-54.774 16.113-76.393-3.308-2.464-2.211-2.667-6.008-.453-8.471 2.214-2.467 6.009-2.669 8.472-.449 18.347 16.479 46.016 16.479 64.362 0 2.282-2.048 5.74-2.048 8.02 0 18.348 16.479 46.016 16.479 64.362 0 2.28-2.048 5.74-2.048 8.02 0 18.346 16.479 46.016 16.479 64.364 0 2.464-2.22 6.258-2.017 8.472.449zm-207.631-88.53c28.596-1.167 65.127-10.409 90.774-33.217 25.648 22.809 62.178 32.059 90.776 33.217-1.509 21.271-10.821 40.199-26.025 64.03-7.481-1.837-14.624-5.488-20.729-10.968-2.279-2.048-5.74-2.048-8.02 0-18.346 16.479-46.014 16.479-64.362 0-2.28-2.048-5.738-2.048-8.02 0-7.958 7.149-17.673 11.188-27.62 12.14-15.648-24.39-25.239-43.653-26.773-65.201zm146.849-73.818h-112.152v56.4c18.836-5.123 37.657-14.1 51.834-28.28 2.343-2.343 6.142-2.343 8.485 0 14.178 14.179 32.999 23.157 51.834 28.28v-56.4zm-125.7-12.003v-14.259h139.249v14.259h-139.248zm-39.589 139.332c-2.214 2.471-2.011 6.259.453 8.471 21.618 19.421 53.599 20.527 76.393 3.308 10.711 8.092 23.451 12.14 36.191 12.14s25.48-4.048 36.189-12.14c22.794 17.219 54.776 16.122 76.393-3.308 2.465-2.211 2.669-6 .454-8.471-2.214-2.458-6.009-2.669-8.472-.449-8.674 7.788-19.43 11.889-30.299 12.32 15.799-25.482 24.826-46.251 24.905-71.232.005-1.59-.624-3.119-1.75-4.251-1.125-1.128-2.655-1.766-4.25-1.766-8.844 0-18.734-.863-28.915-2.793v-59.158h1.941c6.401 0 11.608-5.211 11.608-11.611v-15.038c0-6.405-5.207-11.611-11.608-11.611h-140.033c-6.401 0-11.61 5.206-11.61 11.611v15.038c0 6.4 5.209 11.611 11.61 11.611h1.939v59.158c-10.179 1.929-20.069 2.793-28.916 2.793-1.595 0-3.123.639-4.248 1.766-1.125 1.132-1.757 2.661-1.752 4.251.084 26.491 10.888 48.63 24.227 70.17-7.937-1.727-15.532-5.471-21.976-11.259-2.466-2.22-6.258-2.009-8.472.449z" fill="#242222"/></g></svg>