<svg id="Layer_3" enable-background="new 0 0 64 64" height="20" viewBox="0 0 64 64" width="20" xmlns="http://www.w3.org/2000/svg"><g><path d="m37 36 4 9 4 12c1.763 0 3.3 1.2 3.728 2.91l.272 1.09-8.001 1-4.999-15-5-7-2 10-8 8c1.226.613 2 1.866 2 3.236v.764h-.757c-2.717 0-5.322-1.079-7.243-3l9-12 2-11" fill="#19529d"/><path d="m17 59c1.625 1.625 3.742 2.639 6 2.916v-.68c0-1.37-.774-2.623-2-3.236l8-8 2-10 5 7 4.999 15 8.001-1-.272-1.09c-.428-1.71-1.965-2.91-3.728-2.91l-4-12-4-9h-9l-2 11z" fill="#2769b3"/><path d="m34.156 18.905.418-2.92-3.898-1.826-1.369 3.137z" fill="#d69475"/><path d="m30.383 14.83-1.076 2.466 4.849 1.609.276-1.933c-1.625-.153-3.062-.953-4.049-2.142z" fill="#e8a885"/><path d="m37 27 3 3 1.411.47c.949.317 1.589 1.205 1.589 2.205 0 1.284-1.041 2.325-2.325 2.325-.44 0-.871-.13-1.237-.375l-2.438-1.625" fill="#e8a885"/><path d="m26.85 21.159c.09-1.904 1.342-3.556 3.15-4.159l1.231.352c3.415.975 5.769 4.097 5.769 7.648v11h-11z" fill="#4fa04b"/><path d="m31.231 17.352-.006-.002c-1.38.766-2.298 2.193-2.375 3.809l-.85 14.841h9v-11c0-3.552-2.354-6.673-5.769-7.648z" fill="#6bb566"/><path d="m28 28-3.487 6.975c-.315.628-.957 1.025-1.659 1.025-1.024 0-1.854-.83-1.854-1.854 0-.756.154-1.504.451-2.199l2.549-5.947 4.19-5.028c.513-.616 1.273-.972 2.075-.972h.034c1.492 0 2.701 1.209 2.701 2.701 0 .82-.373 1.596-1.013 2.109z" fill="#f6ba91"/><path d="m33 22.701c0-1.492-1.209-2.701-2.701-2.701h-.034c-.802 0-1.562.356-2.075.972l-1.917 2.301 3.394 3.394 2.32-1.857c.64-.513 1.013-1.289 1.013-2.109z" fill="#3d8738"/><path d="m35 2c-3.314 0-6 2.686-6 6v2c0 3.314 2.686 6 6 6 3.314 0 6-2.686 6-6v-2c0-3.314-2.686-6-6-6z" fill="#e8a885"/><path d="m35 2c-1.402 0-2.688.485-3.71 1.29-.805 1.022-1.29 2.308-1.29 3.71v2c0 3.314 2.686 6 6 6 1.402 0 2.688-.485 3.71-1.29.805-1.022 1.29-2.308 1.29-3.71v-2c0-3.314-2.686-6-6-6z" fill="#f6ba91"/><path d="m21.629 40.928c-3.42-1.367-5.629-4.631-5.629-8.313v-.615h2v.615c0 2.86 1.716 5.395 4.371 6.457z" fill="#8edff8"/><path d="m16 28h2v2h-2z" fill="#8edff8"/><path d="m34 8h7c0-3.314-2.686-6-6-6s-6 2.686-6 6v2c0 2.106 1.088 3.956 2.73 5.027l2.27-3.027z" fill="#3f4042"/><path d="m35 2c-1.402 0-2.688.485-3.71 1.29-.805 1.022-1.29 2.308-1.29 3.71v2c0 2.035 1.015 3.829 2.564 4.914l1.436-1.914v-4h7c0-3.314-2.686-6-6-6z" fill="#5a5b5d"/><path d="m15 59c1.921 1.921 4.526 3 7.243 3h.757v-.764c0-1.37-.774-2.623-2-3.236l-3.818-1.909z" fill="#959595"/><path d="m49 61-.272-1.09c-.428-1.71-1.965-2.91-3.728-2.91l-5.232 1.308 1.231 3.692z" fill="#959595"/><path d="m19.622 60.894c1.054.53 2.196.877 3.378 1.021v-.679c0-1.37-.774-2.623-2-3.236l-2.364-1.182c-1.024 1.366-.539 3.309.986 4.076z" fill="#b4b4b4"/><path d="m48.728 59.91c-.428-1.71-1.965-2.91-3.728-2.91l-3.938.985c.9 1.743 2.801 2.782 4.799 2.533l2.927-.366z" fill="#b4b4b4"/><path d="m22.242 63h.758c.553 0 1-.448 1-1v-.764c0-1.304-.536-2.51-1.454-3.368l7.161-7.161c.14-.14.234-.317.273-.511l1.548-7.737 3.57 5 4.952 14.857c.137.413.523.684.948.684.042 0 .083-.002.125-.008l8.001-1c.284-.035.539-.191.701-.427.161-.236.215-.53.145-.808l-.272-1.089c-.479-1.917-2.054-3.32-3.958-3.612l-3.825-11.462-3.915-8.807v-.919l.884.589c.532.355 1.152.543 1.792.543 1.833 0 3.324-1.492 3.324-3.325 0-1.433-.914-2.701-2.273-3.154l-1.187-.396-2.54-2.539v-1.586c0-2.495-1.052-4.817-2.78-6.472l.221-1.55c3.654-.23 6.559-3.267 6.559-6.978v-2c0-3.86-3.141-7-7-7s-7 3.14-7 7v2c0 1.634.568 3.136 1.51 4.329l-1.001 2.293c-1.539.962-2.57 2.631-2.658 4.479l-.069 1.198-2.551 3.061c-.062.074-.112.157-.15.246l-2.549 5.947c-.353.823-.532 1.696-.532 2.593 0 1.574 1.28 2.854 2.854 2.854.827 0 1.587-.353 2.12-.948l-1.916 10.537-8.858 11.811c-.299.398-.259.955.093 1.307 2.123 2.124 4.946 3.293 7.949 3.293zm25.514-2.853-6.067.759-.63-1.89 4.033-1.009c1.265.042 2.353.906 2.664 2.14zm-8.463-29.44c.109.11.243.192.391.242l1.41.47c.542.181.906.685.906 1.256 0 .731-.594 1.325-1.324 1.325-.244 0-.479-.071-.683-.207l-1.993-1.328v-3.051zm-3.293-5.707v10h-8.941l.186-3.254 1.551-3.102 3.815-3.053c.883-.707 1.389-1.76 1.389-2.89 0-2.041-1.66-3.701-3.735-3.701-.689 0-1.341.209-1.914.558.388-.659.973-1.198 1.692-1.506l.913.261c2.97.849 5.044 3.598 5.044 6.687zm-7.041-3.389c.323-.388.8-.611 1.34-.611.938 0 1.701.763 1.701 1.701 0 .52-.232 1.003-.639 1.328l-1.621 1.298-2.115-2.115zm2.546-5.221-.633-.181.187-.429c.711.487 1.518.841 2.384 1.039l-.051.36c-.589-.329-1.219-.598-1.887-.789zm3.495-1.39c-.618 0-1.204-.127-1.75-.333l1.55-2.067c.13-.173.2-.384.2-.6v-3h5v1c0 2.757-2.243 5-5 5zm-5-7c0-2.757 2.243-5 5-5 2.414 0 4.434 1.721 4.899 4h-5.899c-.553 0-1 .448-1 1v3.667l-1.452 1.935c-.95-.911-1.548-2.185-1.548-3.602zm-6.382 26.527c-.145.292-.438.473-.764.473-.47 0-.854-.383-.854-.854 0-.625.125-1.232.37-1.805l2.491-5.812 1.478-1.774 1.829 1.829-.794.636c-.112.09-.205.204-.27.333zm1.182 13.073c.094-.125.156-.269.184-.421l1.85-10.179h9.516l3.702 8.316 3.658 10.975-3.286.822-3.476-10.43c-.031-.094-.076-.184-.135-.265l-5-7c-.23-.324-.631-.48-1.023-.396-.39.083-.692.391-.771.781l-1.94 9.703-7.276 7.276-2.102-1.051zm-7.319 9.759 3.071 1.536c.82.41 1.355 1.202 1.437 2.102-2.086-.056-4.055-.799-5.645-2.122z"/><path d="m21.629 40.928.742-1.856c-2.655-1.063-4.371-3.597-4.371-6.457v-.615h-2v.615c0 3.682 2.209 6.946 5.629 8.313z"/><path d="m16 28h2v2h-2z"/></g></svg>